# xmcd CD database file
# Copyright (C) 1996 Ti Kan
#
# Track frame offsets:
# 	187
# 	22430
# 	40255
# 	56895
# 	79422
# 	96620
# 	108740
# 	125762
# 	142647
# 	151872
# 	170350
# 	190772
#
# Disc length: 2832 seconds
#
# Revision: 1
# Processed by: cddbd v1.4b41PL1 Copyright (c) Steve Scherf et al.
# Submitted via: DiscPlay 3.4
#
DISCID=ac0b0e0c
DTITLE=Mercy River - Coyote Moon
DYEAR=1900
DGENRE=
TTITLE0=Reasonable Service
TTITLE1=Home
TTITLE2=Love's Getting closer
TTITLE3=coyote Moon
TTITLE4=I Believe
TTITLE5=Can't Go round The Cross
TTITLE6=Shelf Life of Love
TTITLE7=Elvis Has Left The Building, Jesus Is Coming Soon
TTITLE8=Cool Water
TTITLE9=Wrong Place At The Right Time
TTITLE10=Hearts On Fire
TTITLE11=Dear Companion
EXTD=
EXTT0=
EXTT1=
EXTT2=
EXTT3=
EXTT4=
EXTT5=
EXTT6=
EXTT7=
EXTT8=
EXTT9=
EXTT10=
EXTT11=
PLAYORDER=
